<svg width="80" height="80" viewBox="0 0 80 80" fill="none" xmlns="http://www.w3.org/2000/svg">
<path d="M0 11.6364C0 5.20978 5.20978 0 11.6364 0H68.3636C74.7902 0 80 5.20978 80 11.6364V68.3636C80 74.7902 74.7902 80 68.3636 80H11.6364C5.20978 80 0 74.7902 0 68.3636V11.6364Z" fill="#D3D3D3"/>
<path d="M0 11.6364C0 5.20978 5.20978 0 11.6364 0H68.3636C74.7902 0 80 5.20978 80 11.6364V68.3636C80 74.7902 74.7902 80 68.3636 80H11.6364C5.20978 80 0 74.7902 0 68.3636V11.6364Z" fill="#717171"/>
<path d="M39.8145 12.672C43.3789 12.672 46.9085 13.374 50.2016 14.7381C53.4947 16.1022 56.4869 18.1015 59.0074 20.6219C61.5278 23.1424 63.5272 26.1346 64.8912 29.4277C66.2553 32.7208 66.9573 36.2504 66.9573 39.8148C66.9573 43.3793 66.2553 46.9088 64.8912 50.202C63.5272 53.4951 61.5278 56.4873 59.0074 59.0077C56.4869 61.5282 53.4947 63.5275 50.2016 64.8916C46.9085 66.2556 43.3789 66.9577 39.8145 66.9577L39.8145 53.3863C41.5967 53.3863 43.3615 53.0352 45.008 52.3532C46.6546 51.6712 48.1507 50.6715 49.4109 49.4113C50.6712 48.1511 51.6708 46.655 52.3529 45.0084C53.0349 43.3618 53.3859 41.5971 53.3859 39.8148C53.3859 38.0326 53.0349 36.2678 52.3529 34.6213C51.6708 32.9747 50.6712 31.4786 49.4109 30.2184C48.1507 28.9582 46.6546 27.9585 45.0081 27.2765C43.3615 26.5944 41.5967 26.2434 39.8145 26.2434L39.8145 12.672Z" fill="#2E2E2E"/>
<path d="M12.6715 39.8147C12.6715 32.616 15.5312 25.7121 20.6215 20.6218C25.7117 15.5316 32.6156 12.6719 39.8144 12.6719C47.0131 12.6719 53.917 15.5316 59.0072 20.6218C64.0975 25.7121 66.9572 32.616 66.9572 39.8147L53.3858 39.8147C53.3858 36.2154 51.9559 32.7634 49.4108 30.2183C46.8657 27.6731 43.4137 26.2433 39.8144 26.2433C36.215 26.2433 32.763 27.6732 30.2179 30.2183C27.6728 32.7634 26.2429 36.2154 26.2429 39.8147L12.6715 39.8147Z" fill="#FFCF23"/>
</svg>
