<svg viewBox="0 0 80 80" fill="none" xmlns="http://www.w3.org/2000/svg">
	<path d="M0 11.6364C0 5.20978 5.20978 0 11.6364 0H68.3636C74.7902 0 80 5.20978 80 11.6364V68.3636C80 74.7902 74.7902 80 68.3636 80H11.6364C5.20978 80 0 74.7902 0 68.3636V11.6364Z" fill="#D3D3D3"/>
	<path d="M0 11.6364C0 5.20978 5.20978 0 11.6364 0H68.3636C74.7902 0 80 5.20978 80 11.6364V68.3636C80 74.7902 74.7902 80 68.3636 80H11.6364C5.20978 80 0 74.7902 0 68.3636V11.6364Z" fill="#6EC061"/>
	<path d="M39.8144 66.9577C36.25 66.9577 32.7205 66.2556 29.4273 64.8916C26.1342 63.5275 23.142 61.5282 20.6216 59.0077C18.1011 56.4873 16.1018 53.4951 14.7377 50.2019C13.3737 46.9088 12.6716 43.3793 12.6716 39.8148C12.6716 36.2504 13.3737 32.7208 14.7377 29.4277C16.1018 26.1346 18.1011 23.1424 20.6216 20.6219C23.142 18.1015 26.1342 16.1021 29.4273 14.7381C32.7205 13.374 36.25 12.672 39.8145 12.672L39.8145 26.2434C38.0322 26.2434 36.2675 26.5944 34.6209 27.2765C32.9743 27.9585 31.4782 28.9582 30.218 30.2184C28.9578 31.4786 27.9581 32.9747 27.2761 34.6213C26.5941 36.2678 26.243 38.0326 26.243 39.8148C26.243 41.597 26.5941 43.3618 27.2761 45.0084C27.9581 46.6549 28.9578 48.151 30.218 49.4113C31.4782 50.6715 32.9743 51.6712 34.6209 52.3532C36.2675 53.0352 38.0322 53.3863 39.8144 53.3863L39.8144 66.9577Z" fill="white"/>
	<path d="M20.6215 59.0077C15.5312 53.9174 12.6715 47.0135 12.6715 39.8148C12.6715 32.6161 15.5312 25.7122 20.6215 20.6219C25.7118 15.5316 32.6157 12.6719 39.8144 12.6719C47.0131 12.6719 53.917 15.5316 59.0073 20.6219L49.4108 30.2183C46.8657 27.6732 43.4138 26.2434 39.8144 26.2434C36.215 26.2434 32.7631 27.6732 30.2179 30.2183C27.6728 32.7635 26.243 36.2154 26.243 39.8148C26.243 43.4141 27.6728 46.8661 30.2179 49.4112L20.6215 59.0077Z" fill="white"/>
</svg>