<svg width="80" height="80" viewBox="0 0 80 80" fill="none" xmlns="http://www.w3.org/2000/svg">
	<path d="M0 11.6364C0 5.20978 5.20978 0 11.6364 0H68.3636C74.7902 0 80 5.20978 80 11.6364V68.3636C80 74.7902 74.7902 80 68.3636 80H11.6364C5.20978 80 0 74.7902 0 68.3636V11.6364Z" fill="#D3D3D3"/>
	<path d="M0 11.6364C0 5.20978 5.20978 0 11.6364 0H68.3636C74.7902 0 80 5.20978 80 11.6364V68.3636C80 74.7902 74.7902 80 68.3636 80H11.6364C5.20978 80 0 74.7902 0 68.3636V11.6364Z" fill="#9B70A1"/>
	<path d="M20.6216 20.6219C23.142 18.1015 26.1342 16.1022 29.4273 14.7381C32.7205 13.374 36.25 12.672 39.8145 12.672C43.3789 12.672 46.9085 13.374 50.2016 14.7381C53.4947 16.1022 56.4869 18.1015 59.0074 20.6219C61.5278 23.1424 63.5271 26.1346 64.8912 29.4277C66.2552 32.7208 66.9573 36.2504 66.9573 39.8148C66.9573 43.3793 66.2552 46.9088 64.8912 50.202C63.5271 53.4951 61.5278 56.4873 59.0074 59.0077L49.4109 49.4113C50.6711 48.1511 51.6708 46.6549 52.3528 45.0084C53.0348 43.3618 53.3859 41.5971 53.3859 39.8148C53.3859 38.0326 53.0348 36.2678 52.3528 34.6213C51.6708 32.9747 50.6711 31.4786 49.4109 30.2184C48.1507 28.9582 46.6546 27.9585 45.008 27.2765C43.3615 26.5944 41.5967 26.2434 39.8145 26.2434C38.0322 26.2434 36.2675 26.5944 34.6209 27.2765C32.9743 27.9585 31.4782 28.9582 30.218 30.2184L20.6216 20.6219Z" fill="white"/>
	<path d="M20.6215 59.0077C15.5312 53.9174 12.6715 47.0135 12.6715 39.8148C12.6715 32.6161 15.5312 25.7122 20.6215 20.6219C25.7118 15.5316 32.6157 12.6719 39.8144 12.6719C47.0131 12.6719 53.917 15.5316 59.0073 20.6219L49.4108 30.2183C46.8657 27.6732 43.4138 26.2434 39.8144 26.2434C36.215 26.2434 32.7631 27.6732 30.2179 30.2183C27.6728 32.7635 26.243 36.2154 26.243 39.8148C26.243 43.4141 27.6728 46.8661 30.2179 49.4112L20.6215 59.0077Z" fill="white"/>
</svg>